<mxfile host="app.diagrams.net" agent="Mozilla/5.0 (Macintosh; Intel Mac OS X 10_15_7) AppleWebKit/605.1.15 (KHTML, like Gecko) Version/18.5 Safari/605.1.15" version="27.2.0">
  <diagram name="Página-1" id="U9NpuxVsLBcvDExDVaUw">
    <mxGraphModel grid="1" page="1" gridSize="10" guides="1" tooltips="1" connect="1" arrows="1" fold="1" pageScale="1" pageWidth="827" pageHeight="1169" math="0" shadow="0">
      <root>
        <mxCell id="0" />
        <mxCell id="1" parent="0" />
        <mxCell id="CQSfTyS_kF6MGZhLuKRb-1" value="Cliente" style="shape=umlLifeline;perimeter=lifelinePerimeter;whiteSpace=wrap;container=1;dropTarget=0;collapsible=0;recursiveResize=0;outlineConnect=0;portConstraint=eastwest;newEdgeStyle={&quot;edgeStyle&quot;:&quot;elbowEdgeStyle&quot;,&quot;elbow&quot;:&quot;vertical&quot;,&quot;curved&quot;:0,&quot;rounded&quot;:0};participant=umlActor;verticalAlign=bottom;labelPosition=center;verticalLabelPosition=top;align=center;size=65;" vertex="1" parent="1">
          <mxGeometry x="20" y="20" width="35" height="935" as="geometry" />
        </mxCell>
        <mxCell id="CQSfTyS_kF6MGZhLuKRb-2" value="API_REST" style="shape=umlLifeline;perimeter=lifelinePerimeter;whiteSpace=wrap;container=1;dropTarget=0;collapsible=0;recursiveResize=0;outlineConnect=0;portConstraint=eastwest;newEdgeStyle={&quot;edgeStyle&quot;:&quot;elbowEdgeStyle&quot;,&quot;elbow&quot;:&quot;vertical&quot;,&quot;curved&quot;:0,&quot;rounded&quot;:0};size=65;" vertex="1" parent="1">
          <mxGeometry x="574" y="20" width="150" height="935" as="geometry" />
        </mxCell>
        <mxCell id="CQSfTyS_kF6MGZhLuKRb-3" value="OrderView" style="shape=umlLifeline;perimeter=lifelinePerimeter;whiteSpace=wrap;container=1;dropTarget=0;collapsible=0;recursiveResize=0;outlineConnect=0;portConstraint=eastwest;newEdgeStyle={&quot;edgeStyle&quot;:&quot;elbowEdgeStyle&quot;,&quot;elbow&quot;:&quot;vertical&quot;,&quot;curved&quot;:0,&quot;rounded&quot;:0};size=65;" vertex="1" parent="1">
          <mxGeometry x="774" y="20" width="150" height="935" as="geometry" />
        </mxCell>
        <mxCell id="CQSfTyS_kF6MGZhLuKRb-4" value="UserHelper" style="shape=umlLifeline;perimeter=lifelinePerimeter;whiteSpace=wrap;container=1;dropTarget=0;collapsible=0;recursiveResize=0;outlineConnect=0;portConstraint=eastwest;newEdgeStyle={&quot;edgeStyle&quot;:&quot;elbowEdgeStyle&quot;,&quot;elbow&quot;:&quot;vertical&quot;,&quot;curved&quot;:0,&quot;rounded&quot;:0};size=65;" vertex="1" parent="1">
          <mxGeometry x="974" y="20" width="150" height="935" as="geometry" />
        </mxCell>
        <mxCell id="CQSfTyS_kF6MGZhLuKRb-5" value="PaymentMethodModel" style="shape=umlLifeline;perimeter=lifelinePerimeter;whiteSpace=wrap;container=1;dropTarget=0;collapsible=0;recursiveResize=0;outlineConnect=0;portConstraint=eastwest;newEdgeStyle={&quot;edgeStyle&quot;:&quot;elbowEdgeStyle&quot;,&quot;elbow&quot;:&quot;vertical&quot;,&quot;curved&quot;:0,&quot;rounded&quot;:0};size=65;" vertex="1" parent="1">
          <mxGeometry x="1174" y="20" width="177" height="935" as="geometry" />
        </mxCell>
        <mxCell id="CQSfTyS_kF6MGZhLuKRb-6" value="OrderModel" style="shape=umlLifeline;perimeter=lifelinePerimeter;whiteSpace=wrap;container=1;dropTarget=0;collapsible=0;recursiveResize=0;outlineConnect=0;portConstraint=eastwest;newEdgeStyle={&quot;edgeStyle&quot;:&quot;elbowEdgeStyle&quot;,&quot;elbow&quot;:&quot;vertical&quot;,&quot;curved&quot;:0,&quot;rounded&quot;:0};size=65;" vertex="1" parent="1">
          <mxGeometry x="1401" y="20" width="150" height="935" as="geometry" />
        </mxCell>
        <mxCell id="CQSfTyS_kF6MGZhLuKRb-7" value="OrderProductModel" style="shape=umlLifeline;perimeter=lifelinePerimeter;whiteSpace=wrap;container=1;dropTarget=0;collapsible=0;recursiveResize=0;outlineConnect=0;portConstraint=eastwest;newEdgeStyle={&quot;edgeStyle&quot;:&quot;elbowEdgeStyle&quot;,&quot;elbow&quot;:&quot;vertical&quot;,&quot;curved&quot;:0,&quot;rounded&quot;:0};size=65;" vertex="1" parent="1">
          <mxGeometry x="1601" y="20" width="157" height="935" as="geometry" />
        </mxCell>
        <mxCell id="CQSfTyS_kF6MGZhLuKRb-8" value="ProductModel" style="shape=umlLifeline;perimeter=lifelinePerimeter;whiteSpace=wrap;container=1;dropTarget=0;collapsible=0;recursiveResize=0;outlineConnect=0;portConstraint=eastwest;newEdgeStyle={&quot;edgeStyle&quot;:&quot;elbowEdgeStyle&quot;,&quot;elbow&quot;:&quot;vertical&quot;,&quot;curved&quot;:0,&quot;rounded&quot;:0};size=65;" vertex="1" parent="1">
          <mxGeometry x="1808" y="20" width="150" height="935" as="geometry" />
        </mxCell>
        <mxCell id="CQSfTyS_kF6MGZhLuKRb-9" value="Database" style="shape=umlLifeline;perimeter=lifelinePerimeter;whiteSpace=wrap;container=1;dropTarget=0;collapsible=0;recursiveResize=0;outlineConnect=0;portConstraint=eastwest;newEdgeStyle={&quot;edgeStyle&quot;:&quot;elbowEdgeStyle&quot;,&quot;elbow&quot;:&quot;vertical&quot;,&quot;curved&quot;:0,&quot;rounded&quot;:0};size=65;" vertex="1" parent="1">
          <mxGeometry x="2008" y="20" width="150" height="935" as="geometry" />
        </mxCell>
        <mxCell id="CQSfTyS_kF6MGZhLuKRb-10" value="loop" style="shape=umlFrame;dashed=1;pointerEvents=0;dropTarget=0;strokeColor=#B3B3B3;height=20;width=40" vertex="1" parent="1">
          <mxGeometry x="638" y="479" width="1456" height="285" as="geometry" />
        </mxCell>
        <mxCell id="CQSfTyS_kF6MGZhLuKRb-11" value="[Para cada produto no pedido]" style="text;strokeColor=none;fillColor=none;align=center;verticalAlign=middle;whiteSpace=wrap;" vertex="1" parent="CQSfTyS_kF6MGZhLuKRb-10">
          <mxGeometry x="40" width="1416" height="20" as="geometry" />
        </mxCell>
        <mxCell id="CQSfTyS_kF6MGZhLuKRb-12" value="POST /orders com dados do pedido (produtos, método de pagamento)" style="verticalAlign=bottom;edgeStyle=elbowEdgeStyle;elbow=vertical;curved=0;rounded=0;endArrow=block;" edge="1" parent="1" source="CQSfTyS_kF6MGZhLuKRb-1" target="CQSfTyS_kF6MGZhLuKRb-2">
          <mxGeometry relative="1" as="geometry">
            <Array as="points">
              <mxPoint x="381" y="123" />
            </Array>
          </mxGeometry>
        </mxCell>
        <mxCell id="CQSfTyS_kF6MGZhLuKRb-13" value="Verifica se Cliente autenticado e permissões" style="verticalAlign=bottom;edgeStyle=elbowEdgeStyle;elbow=vertical;curved=0;rounded=0;endArrow=block;" edge="1" parent="1" source="CQSfTyS_kF6MGZhLuKRb-2" target="CQSfTyS_kF6MGZhLuKRb-4">
          <mxGeometry relative="1" as="geometry">
            <Array as="points">
              <mxPoint x="858" y="171" />
            </Array>
          </mxGeometry>
        </mxCell>
        <mxCell id="CQSfTyS_kF6MGZhLuKRb-14" value="Permissão concedida" style="verticalAlign=bottom;edgeStyle=elbowEdgeStyle;elbow=vertical;curved=0;rounded=0;dashed=1;dashPattern=2 3;endArrow=block;" edge="1" parent="1" source="CQSfTyS_kF6MGZhLuKRb-4" target="CQSfTyS_kF6MGZhLuKRb-2">
          <mxGeometry relative="1" as="geometry">
            <Array as="points">
              <mxPoint x="861" y="219" />
            </Array>
          </mxGeometry>
        </mxCell>
        <mxCell id="CQSfTyS_kF6MGZhLuKRb-15" value="Verifica método de pagamento pertence ao cliente" style="verticalAlign=bottom;edgeStyle=elbowEdgeStyle;elbow=vertical;curved=0;rounded=0;endArrow=block;" edge="1" parent="1" source="CQSfTyS_kF6MGZhLuKRb-2" target="CQSfTyS_kF6MGZhLuKRb-5">
          <mxGeometry relative="1" as="geometry">
            <Array as="points">
              <mxPoint x="964" y="267" />
            </Array>
          </mxGeometry>
        </mxCell>
        <mxCell id="CQSfTyS_kF6MGZhLuKRb-16" value="Método válido" style="verticalAlign=bottom;edgeStyle=elbowEdgeStyle;elbow=vertical;curved=0;rounded=0;dashed=1;dashPattern=2 3;endArrow=block;" edge="1" parent="1" source="CQSfTyS_kF6MGZhLuKRb-5" target="CQSfTyS_kF6MGZhLuKRb-2">
          <mxGeometry relative="1" as="geometry">
            <Array as="points">
              <mxPoint x="967" y="315" />
            </Array>
          </mxGeometry>
        </mxCell>
        <mxCell id="CQSfTyS_kF6MGZhLuKRb-17" value="Cria registro do pedido (cliente, método, data)" style="verticalAlign=bottom;edgeStyle=elbowEdgeStyle;elbow=vertical;curved=0;rounded=0;endArrow=block;" edge="1" parent="1" source="CQSfTyS_kF6MGZhLuKRb-2" target="CQSfTyS_kF6MGZhLuKRb-6">
          <mxGeometry relative="1" as="geometry">
            <Array as="points">
              <mxPoint x="1071" y="363" />
            </Array>
          </mxGeometry>
        </mxCell>
        <mxCell id="CQSfTyS_kF6MGZhLuKRb-18" value="Insert order" style="verticalAlign=bottom;edgeStyle=elbowEdgeStyle;elbow=vertical;curved=0;rounded=0;dashed=1;dashPattern=2 3;endArrow=block;" edge="1" parent="1" source="CQSfTyS_kF6MGZhLuKRb-6" target="CQSfTyS_kF6MGZhLuKRb-9">
          <mxGeometry relative="1" as="geometry">
            <Array as="points">
              <mxPoint x="1788" y="411" />
            </Array>
          </mxGeometry>
        </mxCell>
        <mxCell id="CQSfTyS_kF6MGZhLuKRb-19" value="Confirmação" style="verticalAlign=bottom;edgeStyle=elbowEdgeStyle;elbow=vertical;curved=0;rounded=0;dashed=1;dashPattern=2 3;endArrow=block;" edge="1" parent="1" source="CQSfTyS_kF6MGZhLuKRb-9" target="CQSfTyS_kF6MGZhLuKRb-6">
          <mxGeometry relative="1" as="geometry">
            <Array as="points">
              <mxPoint x="1791" y="459" />
            </Array>
          </mxGeometry>
        </mxCell>
        <mxCell id="CQSfTyS_kF6MGZhLuKRb-20" value="Verifica existência e validade" style="verticalAlign=bottom;edgeStyle=elbowEdgeStyle;elbow=vertical;curved=0;rounded=0;endArrow=block;" edge="1" parent="1" source="CQSfTyS_kF6MGZhLuKRb-2" target="CQSfTyS_kF6MGZhLuKRb-8">
          <mxGeometry relative="1" as="geometry">
            <Array as="points">
              <mxPoint x="1275" y="552" />
            </Array>
          </mxGeometry>
        </mxCell>
        <mxCell id="CQSfTyS_kF6MGZhLuKRb-21" value="Produto válido" style="verticalAlign=bottom;edgeStyle=elbowEdgeStyle;elbow=vertical;curved=0;rounded=0;dashed=1;dashPattern=2 3;endArrow=block;" edge="1" parent="1" source="CQSfTyS_kF6MGZhLuKRb-8" target="CQSfTyS_kF6MGZhLuKRb-2">
          <mxGeometry relative="1" as="geometry">
            <Array as="points">
              <mxPoint x="1278" y="600" />
            </Array>
          </mxGeometry>
        </mxCell>
        <mxCell id="CQSfTyS_kF6MGZhLuKRb-22" value="Cria registro vínculo pedido-produto" style="verticalAlign=bottom;edgeStyle=elbowEdgeStyle;elbow=vertical;curved=0;rounded=0;endArrow=block;" edge="1" parent="1" source="CQSfTyS_kF6MGZhLuKRb-2" target="CQSfTyS_kF6MGZhLuKRb-7">
          <mxGeometry relative="1" as="geometry">
            <Array as="points">
              <mxPoint x="1173" y="648" />
            </Array>
          </mxGeometry>
        </mxCell>
        <mxCell id="CQSfTyS_kF6MGZhLuKRb-23" value="Insert order_product" style="verticalAlign=bottom;edgeStyle=elbowEdgeStyle;elbow=vertical;curved=0;rounded=0;dashed=1;dashPattern=2 3;endArrow=block;" edge="1" parent="1" source="CQSfTyS_kF6MGZhLuKRb-7" target="CQSfTyS_kF6MGZhLuKRb-9">
          <mxGeometry relative="1" as="geometry">
            <Array as="points">
              <mxPoint x="1890" y="696" />
            </Array>
          </mxGeometry>
        </mxCell>
        <mxCell id="CQSfTyS_kF6MGZhLuKRb-24" value="Confirmação" style="verticalAlign=bottom;edgeStyle=elbowEdgeStyle;elbow=vertical;curved=0;rounded=0;dashed=1;dashPattern=2 3;endArrow=block;" edge="1" parent="1" source="CQSfTyS_kF6MGZhLuKRb-9" target="CQSfTyS_kF6MGZhLuKRb-7">
          <mxGeometry relative="1" as="geometry">
            <Array as="points">
              <mxPoint x="1893" y="744" />
            </Array>
          </mxGeometry>
        </mxCell>
        <mxCell id="CQSfTyS_kF6MGZhLuKRb-25" value="Retorna pedido criado" style="verticalAlign=bottom;edgeStyle=elbowEdgeStyle;elbow=vertical;curved=0;rounded=0;dashed=1;dashPattern=2 3;endArrow=block;" edge="1" parent="1" source="CQSfTyS_kF6MGZhLuKRb-6" target="CQSfTyS_kF6MGZhLuKRb-2">
          <mxGeometry relative="1" as="geometry">
            <Array as="points">
              <mxPoint x="1074" y="802" />
            </Array>
          </mxGeometry>
        </mxCell>
        <mxCell id="CQSfTyS_kF6MGZhLuKRb-26" value="Resposta sucesso (201 Created + dados do pedido)" style="verticalAlign=bottom;edgeStyle=elbowEdgeStyle;elbow=vertical;curved=0;rounded=0;dashed=1;dashPattern=2 3;endArrow=block;" edge="1" parent="1" source="CQSfTyS_kF6MGZhLuKRb-2" target="CQSfTyS_kF6MGZhLuKRb-1">
          <mxGeometry relative="1" as="geometry">
            <Array as="points">
              <mxPoint x="384" y="850" />
            </Array>
          </mxGeometry>
        </mxCell>
      </root>
    </mxGraphModel>
  </diagram>
</mxfile>
